# xmcd
#
# Track frame offsets: 
#        150
#        20607
#        34295
#        48422
#        65728
#        89554
#        103758
#        121810
#        134722
#        150521
#        164627
#        180400
#
# Disc length: 2622 seconds
#
# Revision: 0
# Processed by: cddbd v1.5.2PL0 Copyright (c) Steve Scherf et al.
# Submitted via: ExactAudioCopyFreeDBPlugin 1.0
#
DISCID=a90a3c0c
DTITLE=Snit's Dog and Pony Show - No Good Deed Goes Unpunished
DYEAR=2006
DGENRE=Country
TTITLE0=This Train Is Gone
TTITLE1=Be Good To Yourself
TTITLE2=Push Me Away
TTITLE3=3 AM In Mobile, Alabama
TTITLE4=Something's Gotta Change
TTITLE5=Alright, Alright
TTITLE6=Another Fool
TTITLE7=Down, Down
TTITLE8=The Rock
TTITLE9=Got You On My Mind
TTITLE10=Whiskey Highway
TTITLE11=Roberta
EXTD=
EXTT0=
EXTT1=
EXTT2=
EXTT3=
EXTT4=
EXTT5=
EXTT6=
EXTT7=
EXTT8=
EXTT9=
EXTT10=
EXTT11=
PLAYORDER=
